<?xml version="1.0" encoding="UTF-8"?><svg id="Layer_1" xmlns="http://www.w3.org/2000/svg" viewBox="0 0 116 50.9"><defs><style>.cls-1{fill:#1d1d1b;stroke-width:0px;}</style></defs><path class="cls-1" d="m46.4,4.4c.2-.4.2-.8,0-1.1-.2-.4-.6-1-1-1.6-.5-.7-.9-1.2-1.5-1.5-.2,0-.3-.1-.3-.1-.2,0-.4,0-.6.3-.3.4-.8,1.1-1.5,2-.7.9-1.5,1.9-2.4,3-.9,1.1-1.8,2.3-2.8,3.5-1,1.2-1.9,2.4-2.7,3.4-.8,1-1.6,1.9-2.2,2.6-.6.7-1,1.2-1.2,1.4.6-1.4,1.2-2.7,1.8-3.9.4-1.1.8-2.1,1.2-3,.4-.9.6-1.6.6-1.8,0-.5,0-1-.3-1.6-.2-.6-.6-1-1.2-1.4-.2,0-.3-.1-.3-.1-.2,0-.3,0-.5.2-.4.4-.9,1-1.7,1.9-.7.8-1.6,1.8-2.5,2.8-.9,1-1.9,2.1-3,3.2s-2,2.2-3,3.1c-.9,1-1.8,1.8-2.5,2.5-.7.7-1.2,1.2-1.6,1.4,1.1-2.3,2.2-4.3,3.2-6.2.9-1.7,1.8-3.3,2.7-4.8.9-1.5,1.7-2.6,2.3-3.2,0-.4-.2-.7-.3-1.1,0-.3-.3-.6-.5-.9-.3-.3-.6-.6-1.1-.8,0,0-.1,0-.3,0s-.2,0-.4.1c-.4.3-1.1.8-2.1,1.5-1,.7-2.1,1.5-3.3,2.4-1.2.9-2.4,1.8-3.6,2.6-1.2.9-2.3,1.6-3.2,2.1-2.1,1.2-4,2.3-5.9,3.3S1.3,15.8.1,15.8c-.1.6-.1,1.1,0,1.5,0,.4.3.7.6,1,.3.3.9.5,1.7.5s1.2-.1,2.1-.3c.8-.2,1.8-.6,3-1.2,2.6-1.2,4.6-2.1,5.8-2.8,1.2-.7,2-1,2.4-1s.3.2,0,.6c-.2.4-.5.9-1,1.7-.4.6-.9,1.6-1.6,2.9-.7,1.3-1.4,2.9-2.2,4.5-.8,1.7-1.6,3.4-2.4,5.3-.8,1.8-1.5,3.6-2.1,5.1-.6,1.6-1.1,2.9-1.4,4.1-.3,1.2-.4,1.9-.2,2.1.8,1.3,1.3,1.9,1.7,1.9s.4-.2.6-.5c.1-.2.5-.9,1.1-1.9.6-1.1,1.3-2.2,2.1-3.6.8-1.3,1.6-2.6,2.4-3.9.8-1.3,1.5-2.2,2-2.9.6-.6,1.3-1.5,2.2-2.5.9-1,1.8-2.1,2.8-3.1.9-1,1.8-2,2.7-2.8.9-.8,1.5-1.4,1.9-1.6-1,3.3-1.9,6.3-2.7,8.9-.3,1.2-.6,2.3-1,3.4-.3,1.1-.6,2.1-.8,3-.2.9-.4,1.7-.5,2.3-.1.6-.2,1-.1,1.1.2.6.6,1,1,1.4.4.4.8.7,1.2.9,1.8-3.4,3.5-6.6,5.2-9.5.7-1.2,1.5-2.5,2.2-3.7.8-1.2,1.5-2.4,2.2-3.5.7-1.1,1.4-2,2.1-2.8.6-.8,1.2-1.4,1.7-1.8-1.8,5.4-3.4,10.2-4.7,14.4-.6,1.8-1.2,3.6-1.7,5.4-.5,1.8-1,3.4-1.4,4.8-.4,1.4-.7,2.6-1,3.5-.2.9-.3,1.4-.3,1.6.2.4.6.9,1.1,1.3.5.5,1,.8,1.6,1.1,0,0,0,0,.1,0s0,0,.1,0c.2,0,.4-.2.6-.5.2-.7.7-2.1,1.3-4,.6-1.9,1.4-4.2,2.3-6.9.9-2.7,1.9-5.6,3-8.8,1.1-3.2,2.3-6.4,3.5-9.5,1.2-3.2,2.4-6.2,3.6-9.1,1.2-2.9,2.4-5.5,3.5-7.6Z"/><path class="cls-1" d="m50.2,14.3c0,.1.2.2.3.2s.2,0,.4-.3c.3-.4.8-1,1.5-1.8.7-.8,1.4-1.6,2.1-2.5.7-.8,1.4-1.6,2-2.3.6-.7,1.1-1.1,1.4-1.2-.2-.5-.4-1-.7-1.4-.2-.4-.5-.7-.8-1s-.7-.4-1.2-.4-.4,0-.7.1c-.3,0-.7.5-1.2,1.1-.5.7-1.1,1.4-1.7,2.3-.6.9-1.2,1.7-1.8,2.5-.6.8-1,1.5-1.3,1.9-.2.3-.2.6,0,.9l1.6,1.8Z"/><path class="cls-1" d="m115.4,5c-.2-.4-.5-.7-.8-1-.3-.3-.7-.4-1.2-.4s-.4,0-.7.1c-.3,0-.7.5-1.2,1.1-.5.7-1.1,1.4-1.7,2.3-.6.9-1.2,1.7-1.8,2.5-.6.8-1,1.5-1.3,1.9-.2.3-.2.6,0,.9l1.6,1.8c0,.1.2.2.3.2s.2,0,.4-.3c.3-.4.8-1,1.5-1.8.7-.8,1.4-1.6,2.1-2.5.7-.8,1.4-1.6,2-2.3.6-.7,1.1-1.1,1.4-1.2-.2-.5-.4-1-.7-1.4Z"/><path class="cls-1" d="m109.2,24c0,0-.2,0-.2,0l-5.8,8.2c-.4-1-.3-2.3.1-3.9.4-1.6,1-3.2,1.6-4.7.7-1.8,1.7-3.7,2.8-5.7-.2-.5-.7-1.1-1.3-1.8-.7-.7-1.2-1.2-1.6-1.5,0,0-.2-.1-.3-.1-.2,0-.4.1-.5.3-.3.6-.7,1.5-1.2,2.6-.5,1.1-1.1,2.2-1.6,3.2-.4.7-.7,1.5-1.1,2.3,0,0-.2.2-.3.3-.5.6-1,1.2-1.5,1.7s-1,1.1-1.5,1.5c-.5.4-.9.8-1.3,1-.4.3-.8.4-1.1.3-.2,0-.3-.4-.2-1.1s.2-1.6.4-2.6c.2-1,.5-2.2.9-3.4.3-1.2.7-2.4,1-3.5.3-1.1.6-2.1.8-2.9.2-.8.4-1.3.4-1.5,0-.5-.2-1-.8-1.6-.6-.6-1.2-1-1.7-1.4-.2,0-.3-.1-.3-.1-.1,0-.3,0-.5.3-.5.9-1.1,1.9-1.9,3-.7,1.1-1.5,2.1-2.1,3-.9,1.1-1.8,2.1-2.6,3.2,0-.5.2-1,.3-1.6,0-.5.2-.9.2-1.5,0-.5.1-1,.2-1.5.1-.9,0-1.6-.5-2-.4-.4-1-.8-1.6-1-.3,0-.7.1-1,.7-.3.5-.7,1.1-1.1,1.8-.4.7-.8,1.3-1.2,1.9-.4.6-.9.9-1.4.9s-.4-.3-.4-.8c0-.5,0-1.1,0-1.8s-.1-1.4-.3-2c-.2-.6-.7-1.1-1.3-1.2-.4,0-.9.3-1.5.8-.6.6-1.3,1.3-2.1,2.1-.8.9-1.5,1.8-2.3,2.9-.8,1.1-1.5,2.1-2.2,3.1-.7,1-1.3,1.9-1.9,2.7-.6.8-.9,1.4-1.2,1.8,0,0,0,0,0,0-.2.3-.5.7-.8,1.2-.5.8-1,1.5-1.5,2.3-.5.7-1,1.4-1.4,1.9-.4.5-.8.7-.9.6-.3-.3-.3-.9,0-1.8.3-.9.7-1.9,1.2-2.9.6-1.2,1.3-2.5,2.1-3.9-.4-.9-.9-1.7-1.6-2.2s-1.3-.8-1.6-.8-.5.2-.9.7c-.4.5-.9,1.1-1.4,1.8-.5.8-1.1,1.6-1.7,2.6-.6.9-1.2,1.9-1.7,2.9-1.1,1.9-2.1,3.4-3.1,4.4-1,1-1.6,1.4-1.8,1.2,0,0-.2-.3-.2-.6s0-.8.3-1.5c.3-.7.7-1.7,1.3-3s1.6-3,3-5.2c1.3-2.2,2.6-3.6,3.7-4.3,1.1-.7,2.1-1,2.9-1s1.3.2,1.8.5c.2.1.4.3.6.5-.5-1.3-1-2.3-1.7-3.1-.6-.8-1.5-1.2-2.6-1.2s-1.4.2-2.3.6c-1.2.5-2.3,1.2-3.3,2.1-1,.9-1.8,1.8-2.6,2.9-.8,1-1.5,2.1-2.2,3.3-.4.6-.7,1.2-1,1.8,0,0,0,0,0,0l-5.8,8.2c-.4-1-.3-2.3.1-3.9.4-1.6,1-3.2,1.6-4.7.7-1.8,1.7-3.7,2.8-5.7-.2-.5-.7-1.1-1.3-1.8-.7-.7-1.2-1.2-1.6-1.5,0,0-.2-.1-.3-.1-.2,0-.4.1-.5.3-.3.6-.7,1.5-1.2,2.6-.5,1.1-1,2.2-1.6,3.2-.7,1.3-1.4,2.9-2.2,4.7-.8,1.8-1.1,3.9-1,6.4,0,1.5.5,2.6,1.2,3.4.7.8,1.6,1.2,2.6,1.2s1,0,1.4-.3c1.2-.5,2.4-1.3,3.5-2.5.3-.3.6-.6.9-1,.4,1,.9,1.9,1.7,2.6.8.7,1.6,1.1,2.6,1,.8,0,1.6-.2,2.4-.7.7-.5,1.4-1,1.9-1.5.6-.6,1.2-1.3,1.7-2.1.2.6.5,1,.9,1.5.3.4.7.7,1.2,1,.5.3,1,.5,1.7.5s.6,0,.7,0c.7-.1,1.5-.7,2.5-1.7,1-1,1.9-2,2.8-3.2.9-1.2,1.7-2.3,2.5-3.4.7-1.1,1.2-1.8,1.3-2.1,0,0,0-.1,0-.2.2-.2.4-.5.6-.7.4-.6.9-1.1,1.3-1.6.5-.6,1-1.3,1.5-2,.4,1.2.3,2.6-.3,4.1s-1.4,3.3-2.6,5.4c-.3.6-.5,1.1-.5,1.5s.1.9.3,1.2c.2.4.5.7.8,1,.3.3.6.5.9.7.1,0,.3.1.6.1.6,0,.9-.2,1.1-.6.5-.8,1-1.7,1.5-2.6.5-1,1-1.8,1.6-2.6.6-1,1.1-1.9,1.7-2.9.2.6.2,1.5,0,2.7-.2,1.2-.6,2.5-1,4-.3,1-.2,1.7.5,2.3.6.6,1.3,1,1.9,1.3,0,0,.3,0,.5,0,.6,0,1.1-.3,1.3-.9.6-1.5,1.1-2.8,1.7-3.8.6-1,1.1-1.8,1.6-2.5.6-.7,1.1-1.3,1.7-1.7-.1.6-.3,1.2-.4,2.1s-.1,1.6,0,2.4c.1.8.4,1.4.8,2,.4.6,1.1.8,2,.8,1.1,0,2.3-.5,3.6-1.3.7-.4,1.3-.9,2-1.4,0,.2,0,.4,0,.6,0,1.5.5,2.6,1.2,3.4.7.8,1.6,1.2,2.6,1.2s1,0,1.4-.3c1.2-.5,2.4-1.3,3.5-2.5,1.2-1.2,2.2-2.5,3.1-3.8.9-1.3,1.8-2.5,2.5-3.6.7-1.1,1.1-1.8,1.3-2.1.1-.1.1-.2,0-.2h-4.4Z"/></svg>