<?xml version="1.0" encoding="UTF-8"?>
<svg id="Layer_1" xmlns="http://www.w3.org/2000/svg" viewBox="0 0 348.9 50.7">
  <defs>
    <style>
      .cls-1 {
        fill: #496db5;
      }
    </style>
  </defs>
  <path class="cls-1" d="M0,25.5C-.4,14.1,7,4.3,18.4,1.2c7.5-2,14.9-1.7,21.9,1.7,6.9,3.3,11.4,8.7,13.2,16.2,3.1,13.6-4,26.3-17.7,30.1-7,2-14,1.7-20.8-1.2-7.3-3.1-12.1-8.5-14.2-16.2C.1,29.6,0,27.4,0,25.5ZM26.2,31.3c0,1.7,0,3.5,0,5.2,0,.7.2.8.9.8,7.1-.6,12.1-7,11-14.1-.8-4.8-4.5-8.7-9.2-9.8-4.8-1.1-9.8.9-12.6,4.9-.3.5-.3.7.2,1.1,3,1.8,6,3.7,9,5.5.5.3.7.6.7,1.3,0,1.7,0,3.4,0,5.2Z"/>
  <path class="cls-1" d="M204,50.4c-.5,0-.9,0-1.4,0-3.8,0-7.6,0-11.3,0-.5,0-.7-.1-1-.5-5.7-6.9-11.5-13.7-17.2-20.6-.1-.2-.3-.3-.6-.7v21.7h-15.8c0-.3,0-.6,0-.9,0-15.4,0-30.9,0-46.3,0-.7.2-1,.9-.9,3.9,0,7.7,0,11.6,0,.6,0,1,.2,1.4.7,5.7,6.8,11.4,13.6,17,20.4.2.2.3.4.7.5v-.8c0-6.6,0-13.3,0-19.9,0-.7.2-.9.9-.9,4.7,0,9.4,0,14,0,.7,0,.9.2.9.9,0,15.5,0,31,0,46.5,0,.2,0,.5,0,.8Z"/>
  <path class="cls-1" d="M146.6,31.9h-20.2v6.3c.3,0,.6,0,.9,0,7.4,0,14.8,0,22.2,0,.7,0,.9.2.9.9,0,3.5,0,7,0,10.5,0,.2,0,.5,0,.8h-39.9c0-.2,0-.5,0-.7,0-15.5,0-31,0-46.5,0-.7.2-.9.9-.9,12.4,0,24.9,0,37.3,0,.7,0,.9.2.9.9,0,3.5,0,7,0,10.5,0,.7-.2.9-.9.9-7.1,0-14.2,0-21.2,0-.3,0-.6,0-1,0v5.6h20.2v11.8Z"/>
  <path class="cls-1" d="M76.3,50.4h-16.2V2.3c.2,0,.3,0,.5,0,7.9,0,15.8,0,23.7,0,3.9,0,7.7.8,11.2,2.5,7.1,3.5,10.3,10.2,9.4,17.7-.8,7.4-5,12-11.8,14.5-3.2,1.2-6.6,1.6-10.1,1.6-2,0-4,0-6,0-.3,0-.5,0-.9,0v11.8ZM76.3,20.4c0,1.6,0,3.3,0,4.9,0,.4,0,.7.6.7,2.2,0,4.4,0,6.6,0,1.8,0,3.5-.7,4.5-2.4,2.2-3.6.2-8.1-4-8.6-2.3-.3-4.7-.1-7-.2-.6,0-.7.2-.7.7,0,1.6,0,3.3,0,4.9Z"/>
  <path class="cls-1" d="M281.9,50.6c-6.9.2-13-2-17.9-6.9-4-3.9-6.3-8.8-6.9-14.4-.7-7,.9-13.4,5.4-18.8,3.9-4.6,8.8-7.3,14.8-8.3,6-1,11.9-.3,17.3,2.7,6.8,3.8,10.9,9.6,12,17.3,1.1,7-.3,13.5-4.7,19.2-4,5.1-9.3,8-15.6,8.9-.4,0-.9.2-1.3.2-1,0-2,0-3,0ZM303.3,26.3c0-12.1-9.2-21.2-21.4-21.2-12.3,0-21.5,9.1-21.5,21.2,0,12.1,9.1,21.2,21.4,21.2,12.3,0,21.5-9,21.5-21.1Z"/>
  <path class="cls-1" d="M215.9,34.7v15.7h-3.5c0-.3,0-.5,0-.8,0-15.5,0-31,0-46.5,0-.6.1-.9.8-.9,5.6,0,11.3,0,16.9,0,3.7,0,7.3.6,10.6,2.3,4.9,2.5,7.6,6.5,8.1,12,.3,3.4,0,6.6-1.7,9.7-2.1,3.9-5.6,6.2-9.8,7.4-2.6.7-5.2,1-7.8,1-4.2,0-8.5,0-12.7,0h-1ZM215.9,18.4c0,4.1,0,8.2,0,12.4,0,.5.1.7.7.7,4.7,0,9.4,0,14,0,2.3,0,4.6-.4,6.8-1.1,3.4-1.2,6-3.4,7.3-6.9.8-2.1.9-4.4.7-6.6-.4-4.1-2.3-7.3-6-9.3-2.9-1.6-6-2-9.3-2-4.5,0-8.9,0-13.4,0-.7,0-.8.2-.8.8,0,4,0,8.1,0,12.1Z"/>
  <path class="cls-1" d="M345.6,9.1c-2.3-1.5-4.6-2.6-7.2-3.2-4.6-1.1-9.2-1.2-13.6.5-4.6,1.8-6.8,6.3-5.5,10.9.4,1.6,1.5,2.7,2.8,3.7,2,1.5,4.3,2.2,6.6,2.9,3.7,1.1,7.5,2.1,11.2,3.2,2.6.8,4.8,2.1,6.7,4.1,1.4,1.6,2.2,3.5,2.3,5.7.1,2.6-.2,5.2-1.7,7.5-1.8,2.8-4.4,4.3-7.4,5.4-3.7,1.3-7.5,1.3-11.4.9-4.5-.4-8.6-1.9-12.2-4.5-2.2-1.6-2.2-1.6-.8-3.8,0-.2.2-.3.3-.4,1.3.9,2.4,1.9,3.7,2.6,4.6,2.7,9.6,3.6,14.8,3.1,2.6-.2,5-.7,7.2-2.1,4.6-2.9,4.8-8,3.1-11-1.1-2-3-3.3-5.1-4-2.9-1-5.8-1.8-8.8-2.6-3-.8-6.1-1.5-8.9-3-3.2-1.6-5.5-4-6.1-7.7-.9-5.4,1.5-10.4,6.3-12.9,2.4-1.3,5-1.9,7.7-2.1,5.5-.4,10.8.4,15.6,3.1,1.8,1,1.8,1,.9,2.8-.2.4-.4.7-.6,1.1Z"/>
</svg>